<?xml version="1.0" encoding="utf-8"?>
<!-- Generator: Adobe Illustrator 15.0.0, SVG Export Plug-In . SVG Version: 6.00 Build 0)  -->
<!DOCTYPE svg PUBLIC "-//W3C//DTD SVG 1.1//EN" "http://www.w3.org/Graphics/SVG/1.1/DTD/svg11.dtd">
<svg version="1.1" id="Layer_1" xmlns="http://www.w3.org/2000/svg" xmlns:xlink="http://www.w3.org/1999/xlink" x="0px" y="0px"
	 width="1190.55px" height="841.89px" viewBox="0 0 1190.55 841.89" enable-background="new 0 0 1190.55 841.89"
	 xml:space="preserve">
<g>
	<path fill="#FFFFFF" d="M139.173,535.596c-29.375,0-58.741-11.179-81.1-33.53c-21.636-21.639-33.55-50.446-33.55-81.118
		c0-30.673,11.914-59.481,33.55-81.108c21.63-21.632,50.435-33.546,81.108-33.546c30.67-0.004,59.467,11.914,81.093,33.539
		l-4.937,4.937c-20.308-20.313-47.362-31.5-76.157-31.497c-28.808,0-55.862,11.184-76.17,31.502
		c-20.322,20.311-31.505,47.365-31.505,76.173c0,28.806,11.184,55.863,31.505,76.182c42.001,41.992,110.329,41.992,152.327-0.01
		c15.116-15.109,25.222-34.035,29.383-54.93H139.053v-6.974h113.929l-0.647,4.041c-3.842,23.951-14.928,45.668-32.06,62.799
		C197.92,524.417,168.541,535.596,139.173,535.596z"/>
	<g>
		<path fill="#FFFFFF" d="M223.113,453.003c-4.425,11.705-11.228,22.458-20.33,31.559c-35.068,35.07-92.129,35.076-127.216,0
			c-16.965-16.965-26.306-39.555-26.306-63.614c0-24.066,9.341-46.655,26.306-63.62c35.08-35.071,92.148-35.071,127.216-0.004
			l4.933-4.933c-37.793-37.791-99.286-37.791-137.082,0.005c-37.806,37.797-37.806,99.303,0,137.102
			c18.893,18.9,43.717,28.351,68.539,28.351c24.813,0,49.653-9.45,68.543-28.351c10.45-10.453,18.125-22.916,22.828-36.495H223.113z
			"/>
	</g>
	<g>
		<path fill="#FFFFFF" d="M203.864,453.003c-3.437,6.902-7.979,13.336-13.639,18.999c-13.644,13.639-31.771,21.146-51.052,21.146
			c-19.275,0-37.416-7.508-51.044-21.146c-13.644-13.635-21.154-31.77-21.154-51.054c0-19.288,7.511-37.419,21.154-51.061
			c28.139-28.147,73.942-28.149,102.096,0l4.935-4.933c-30.873-30.875-81.1-30.875-111.968,0
			C68.233,379.91,59.99,399.797,59.99,420.948c0,21.15,8.243,41.032,23.202,55.987c14.949,14.963,34.842,23.192,55.98,23.192
			c21.142,0,41.026-8.229,55.987-23.192c7.056-7.053,12.574-15.177,16.467-23.932H203.864z"/>
	</g>
	<polygon fill="#FFFFFF" points="235.753,417.455 139.053,417.455 139.053,424.436 242.73,424.436 	"/>
	<polygon fill="#FFFFFF" points="217.994,399.689 139.053,399.689 139.053,406.672 224.975,406.672 	"/>
</g>
<g>
	<path fill="#FFFFFF" d="M1108.25,463.211h49.643v-7.257h-41.576v-31.241h37.158v-7.245h-37.158v-31.54h41.576v-7.25h-49.643
		V463.211z"/>
</g>
<path fill="#FFFFFF" d="M1025.275,452.61c7.41,7.946,17.268,12.284,28.016,12.284c14.971,0,25.414-9.699,25.414-23.597
	c0-7.733-3.451-13.777-10.578-18.473c-3.662-2.44-8.256-4.386-12.707-6.27c-9.619-4.075-19.562-8.287-19.562-17.842
	c0-9.722,9.184-14.975,17.824-14.975c5.559,0,10.965,1.773,15.775,5.159l4.207-5.194c-6.158-4.498-13.039-6.773-20.504-6.773
	c-13.881,0-24.762,9.395-24.762,21.396c0,7.324,3.371,13.111,10.314,17.69c3.576,2.339,7.98,4.165,12.232,5.917
	c9.979,4.128,20.303,8.389,20.303,19.751c0,9.348-8,16.398-18.605,16.398c-10.037,0-17.467-5.243-22.352-10.425L1025.275,452.61z"/>
<polygon fill="#FFFFFF" points="931.718,396.054 997.39,464.582 997.39,378.678 989.324,378.678 989.324,445.39 923.654,376.684 
	923.654,463.211 931.718,463.211 "/>
<polygon fill="#FFFFFF" points="843.406,463.211 893.048,463.211 893.048,455.955 851.468,455.955 851.468,424.713 888.625,424.713 
	888.625,417.468 851.468,417.468 851.468,385.928 893.048,385.928 893.048,378.678 843.406,378.678 "/>
<path fill="#FFFFFF" d="M760.935,452.61c7.416,7.946,17.273,12.284,28.021,12.284c14.965,0,25.414-9.699,25.414-23.597
	c0-7.733-3.455-13.777-10.576-18.473c-3.668-2.44-8.262-4.386-12.713-6.27c-9.617-4.075-19.557-8.287-19.557-17.842
	c0-9.722,9.178-14.975,17.824-14.975c5.555,0,10.959,1.773,15.771,5.159l4.211-5.194c-6.16-4.498-13.045-6.773-20.51-6.773
	c-13.883,0-24.757,9.395-24.757,21.396c0,7.324,3.366,13.111,10.315,17.69c3.572,2.339,7.977,4.165,12.227,5.917
	c9.98,4.128,20.305,8.389,20.305,19.751c0,9.348-7.996,16.398-18.607,16.398c-10.035,0-17.467-5.243-22.349-10.425L760.935,452.61z"
	/>
<path fill="#FFFFFF" d="M724.902,389.568c-4.269-3.907-9.083-6.711-14.306-8.321c-5.003-1.715-11.929-2.569-20.646-2.569h-16.83
	v84.534h16.607c8.79,0,15.616-0.795,20.292-2.372c4.98-1.566,9.79-4.373,14.334-8.373c9.134-8.076,13.59-18.388,13.59-31.522
	C737.943,407.835,733.67,397.569,724.902,389.568z M718.818,446.835c-3.539,3.211-7.555,5.583-11.941,7.055
	c-4.348,1.376-9.738,2.064-16.102,2.064h-9.591v-70.026h9.591c12.242,0,21.726,3.014,28.177,8.955
	c7.173,6.673,10.804,15.434,10.804,26.061C729.755,431.506,726.076,440.215,718.818,446.835z"/>
<path fill="#FFFFFF" d="M491.347,376.847c-24.342,0-44.071,19.729-44.071,44.067c0,24.334,19.729,44.066,44.071,44.066
	c24.34,0,44.069-19.732,44.069-44.066C535.416,396.577,515.687,376.847,491.347,376.847z M491.347,457.347
	c-20.125,0-36.436-16.311-36.436-36.433c0-20.123,16.31-36.433,36.436-36.433c20.122,0,36.434,16.31,36.434,36.433
	C527.781,441.037,511.468,457.347,491.347,457.347z"/>
<path fill="#FFFFFF" d="M602.633,376.847c-24.34,0-44.069,19.729-44.069,44.067c0,24.334,19.729,44.066,44.069,44.066
	c24.341,0,44.07-19.732,44.07-44.066C646.704,396.577,626.974,376.847,602.633,376.847z M602.633,457.347
	c-20.125,0-36.434-16.311-36.434-36.433c0-20.123,16.308-36.433,36.434-36.433c20.126,0,36.434,16.31,36.434,36.433
	C639.067,441.037,622.759,457.347,602.633,457.347z"/>
<path fill="#FFFFFF" d="M417.61,416.917h-32.612v8.059h32.382c-0.886,7.928-4.358,15.624-10.436,21.7
	c-14.229,14.231-37.299,14.226-51.526,0c-14.233-14.234-14.233-37.298-0.004-51.527c14.228-14.228,37.298-14.228,51.527,0.003
	l5.397-5.399c-17.212-17.212-45.112-17.212-62.321-0.003c-17.212,17.208-17.212,45.11,0,62.325
	c17.212,17.212,45.112,17.208,62.326,0c7.525-7.529,11.761-17.104,12.7-26.937l0.017-0.163L417.61,416.917z"/>
</svg>
